<svg xmlns="http://www.w3.org/2000/svg" viewBox="0 0 24 24" fill="none">
  <rect width="24" height="24" rx="6" fill="#0A0A0A"/>
  <path fill="#E5E7EB" d="M12 4C7.6 4 4 7.7 4 12.1c0 3.5 2.2 6.4 5.3 7.5.4.1.5-.2.5-.4v-1.4c-2.2.5-2.6-1-2.6-1-.4-.9-.9-1.2-.9-1.2-.8-.5.1-.5.1-.5.9.1 1.4 1 1.4 1 .8 1.4 2.1 1 2.6.8.1-.6.3-1 .5-1.3-1.8-.2-3.7-.9-3.7-4.1 0-.9.3-1.7.9-2.3-.1-.2-.4-1.1.1-2.2 0 0 .7-.2 2.3.9a7.6 7.6 0 0 1 4.2 0c1.6-1.1 2.3-.9 2.3-.9.5 1.1.2 2 .1 2.2.6.6.9 1.4.9 2.3 0 3.2-1.9 3.9-3.8 4.1.3.2.6.7.6 1.5v2.2c0 .2.1.5.5.4A8.1 8.1 0 0 0 20 12c0-4.3-3.6-8-8-8Z"/>
</svg>
